<?xml version="1.0" encoding="UTF-8"?>
<!DOCTYPE svg PUBLIC "-//W3C//DTD SVG 1.1//EN" "http://www.w3.org/Graphics/SVG/1.1/DTD/svg11.dtd">
<!-- Creator: CorelDRAW 2018 (64-Bit Evaluation Version) -->
<svg xmlns="http://www.w3.org/2000/svg" xml:space="preserve" width="65.9552mm" height="84.6666mm" version="1.1" style="shape-rendering:geometricPrecision; text-rendering:geometricPrecision; image-rendering:optimizeQuality; fill-rule:evenodd; clip-rule:evenodd"
viewBox="0 0 1309.1 1680.49"
 xmlns:xlink="http://www.w3.org/1999/xlink">
 <defs>
  <style type="text/css">
   <![CDATA[
    .fil0 {fill:#07080A}
   ]]>
  </style>
 </defs>
 <g id="Layer_x0020_1">
  <metadata id="CorelCorpID_0Corel-Layer"/>
  <path class="fil0" d="M-0 500.2l0 50.1 7.29 42.38c8.84,40.06 20.85,68.44 37.36,105.45 34.53,77.41 63.98,115.23 111.81,173.9l24 24.68c6.19,6.95 21.62,16.05 23.02,24.48 1.06,6.37 -20.45,58.69 -23.68,71.92 -5.94,24.4 -11.78,53.4 -14.73,79.13 -8.73,76.41 6.67,98.81 5.17,136.03 -2.88,71.5 -1.92,155.17 8.82,224.53 10.45,67.49 33.17,159.75 76.42,210.68 28.03,33 42.14,29.38 56.66,37.01l24.4 0c21.36,-11.24 20.56,-1.13 50.03,-30.17 40.65,-40.05 67.94,-103.81 83.36,-161.92 13.97,1.2 42.53,12.87 79.73,17 53.57,5.94 52.13,-0.77 90.82,-1.59 3.9,41.04 11.19,81.03 28.59,112.54 16.54,29.95 37.12,52.27 69.83,61.11l8.28 3.04 20.14 0c10.8,-5.64 20.14,-1.08 44.32,-16.77 11.72,-7.61 26.58,-19.01 34.3,-27.9 40.12,-46.21 65.77,-105.35 76.62,-168.63 7.28,-42.45 6.79,-72.17 5.98,-115.94 5.66,3.16 9.31,6.9 14.29,11.53 4.41,4.1 10.01,8.18 15.13,11.77 33.15,23.16 82.74,39.25 115.77,10.08 39.84,-35.18 43.51,-103.04 35.97,-167.28 -7.44,-63.39 -22.34,-110.37 -43.99,-164 -10.05,-24.88 -21.59,-48.37 -33.82,-70.38l-41.03 -65.41c5.38,-3.87 16.55,-4.86 27.23,-8.67 90.18,-32.1 147.15,-131.49 168.07,-223.47 9.83,-43.2 11.97,-86.56 10.45,-132.47 12.95,-6.84 28.13,-12.9 39.91,-20.51 13.15,-8.5 23.27,-18.76 32.11,-28.42 16.1,-17.59 31.22,-44.52 36.79,-68.98l3.62 -12.47 0 -34.78c-2.21,-5.06 -3.75,-17.53 -6.4,-25.15 -7.76,-22.3 -18.41,-40.82 -33.85,-56.84 -46.09,-47.82 -123.17,-61.92 -183.89,-35.83 -17.06,7.33 -13.31,3.87 -36.2,-16.38 -88.82,-78.55 -223.87,-135.84 -347.96,-140.77 -16.69,-0.66 -45.16,4.76 -57.18,3.02 -2.77,-4.6 -6.36,-17.6 -8.61,-23.19 -9.57,-23.78 -22.23,-37.79 -38.53,-53.93 -31.88,-31.58 -74.04,-34.16 -84.96,-38.71l-37.18 0c-5.79,3.01 -29.59,7.65 -39.45,11.43 -74.38,28.48 -117.28,115.62 -90.61,192.16 14.98,42.99 22.01,24.25 2.52,49.13 -3.76,4.81 -7.7,8.43 -11.74,13.47 -27.03,33.65 -35.66,41.02 -58.84,92.36 -10.67,23.63 -19.34,48.53 -25.41,75.34 -7.34,32.46 -7.38,56.8 -7.53,90.08l-26.65 -26.43c-8.17,-9.41 -18.65,-17.7 -28.33,-25.45 -38.93,-31.13 -101.94,-72.43 -151.56,-40.44 -30.49,19.66 -30.51,53.55 -36.74,68.54zm663.97 -359.64c-35.48,2.01 -56.12,5.95 -87.43,15.82 -44.15,13.92 -140.2,55.43 -175.38,83.46 -7,5.58 -20.78,18.97 -26.14,25.95 -25.4,33.11 -17.78,18.38 -42.2,60.35 -13.54,23.26 -23.07,43.89 -33.67,70.5 -19.25,48.3 -34.98,129.04 -22.71,178.85 6.68,27.12 30.61,64.44 46.9,80.94l67.82 61.52c18.79,15.1 73.99,50.53 94.17,62.11 82.78,47.51 194.14,90.84 303.65,109.71 52.96,9.13 140.98,13.68 193.2,1.65 33.25,-7.66 74.93,-35.35 95.04,-59.52 44.62,-53.61 68.42,-94.7 83.43,-175.4 12.82,-68.95 12.43,-116.82 -6.62,-182.1 -14.27,-48.9 -42.08,-105.16 -67.17,-139.58 -28.55,-39.16 -63.21,-69.2 -108.92,-97.74 -74.53,-46.54 -201.62,-102.89 -313.95,-96.53zm-420.11 773.3c-17.69,10.09 -38.64,85.62 -43.39,113.52 -16.86,99.03 2.87,171.56 47.37,254.01 8.43,15.61 21.43,33.65 31.84,45.48l18.5 20.16c3.7,3.89 6.58,6.23 10.25,9.95l31.08 27.67c18.96,16.26 49.7,34.09 72.92,44.8 124.09,57.21 259.17,43.87 370.13,-31.8 30.32,-20.67 58.44,-46.79 79.47,-76.84 10.32,-14.76 20.77,-29.19 30.19,-47.06 8.39,-15.91 -2.74,-26.37 -16.84,-55.27 -21.18,-43.41 -45.89,-87.48 -66,-128.87 -7.06,-14.53 -4.94,-12.96 -18.71,-20.02 -124.75,-63.92 -265.69,-113.19 -405.48,-142.29 -21.3,-4.43 -125.59,-22.4 -141.33,-13.43zm661.4 -400.61c-86.98,17.56 -107.73,156.01 -40.71,227.02 75.55,80.06 179.14,2.63 160.14,-116.48 -5.72,-35.86 -19.37,-57.94 -36.77,-79.15 -13.36,-16.29 -48.03,-38.39 -82.66,-31.4zm-377.61 -144.34c-60.98,5.93 -111.24,48.02 -128.6,92.3 -27.44,69.97 22.02,119.48 91.7,114.95 52.58,-3.42 107.73,-43.92 127.71,-92.1 28.06,-67.64 -23.05,-121.74 -90.81,-115.15zm142.98 286.49c-9.78,21.48 -55.83,38.62 -65.63,-5.06 -1.03,-4.61 -1.28,-10.2 -6.13,-12.53 -20.16,-9.69 -19.11,36.19 11.97,53.69 25.73,14.48 40.78,1.44 59.95,-5.53 5.77,7.68 5.67,14.03 14.05,22.32 32.43,32.03 71.21,15.56 77.7,3.71 4.72,-8.63 -4.07,-18.31 -15.36,-11.93 -9.94,5.62 -14.83,10.57 -30.08,6.18 -19.39,-5.58 -32.17,-22.73 -26.77,-46.15 17.45,-2.57 14.77,2.69 33.09,-7.2 44.71,-24.14 24.95,-58.5 -11.77,-72.22 -41.94,-15.68 -85.83,-0.24 -60.72,48.93 2.23,4.36 6.07,10.44 8.62,13.28 4.25,4.74 8.17,6.57 11.08,12.52zm-148.72 -147.26c17.09,3.43 36.48,-18.05 28.33,-26.46 -7.68,-7.92 -33.1,8.28 -28.33,26.46zm373.78 133.08c11.57,-9.92 1.59,-28.89 -8.4,-32.86 -14.12,6.27 -3.91,31.74 8.4,32.86z"/>
 </g>
</svg>
